<?xml version="1.0" encoding="utf-8"?>
<!-- Generator: Adobe Illustrator 26.1.0, SVG Export Plug-In . SVG Version: 6.00 Build 0)  -->
<svg version="1.1" id="Layer_1" xmlns="http://www.w3.org/2000/svg" xmlns:xlink="http://www.w3.org/1999/xlink" x="0px" y="0px"
	 viewBox="0 0 713 568.5" style="enable-background:new 0 0 713 568.5;" xml:space="preserve">
<style type="text/css">
	.st0{fill:none;stroke:#000000;stroke-miterlimit:10;}
</style>
<g>
	<path class="st0" d="M455.9,567.9c-20.3,0-40.7,0-61,0c-8.4,0-11.5-2.7-13.8-10.7c-3.4-12.1-1.4-24.1-0.3-36.2
		c2.2-24.5,5.6-49,5.4-73.7c-0.1-8-0.4-16.1-3.1-23.7c-3.3-9.2-8.5-17.4-19-19.3c-14.3-2.5-26.7,1.8-36.6,12.5
		c-8.3,9-12.7,20.3-16.9,31.5c-5.8,15.6-11.6,31.2-16.7,47.1c-13.3,41.3-42.6,62.6-84.3,69.6c-26.9,4.5-53.8,2.4-80.8,2.8
		c-26.7,0.4-53.3,0.3-80-0.2c-14.8-0.3-29.6-0.7-44.3-2.7c-1.5-0.2-3.2-0.1-3.7-1.9c-0.4-1.5,0.8-2.4,1.6-3.5
		c4-5.2,9.9-7.5,15.9-8.8c13-2.8,26.1-5,39.2-7.4c19.8-3.6,39.6-7.2,59.4-10.8c22.1-4,44.2-8,66.3-11.9c9.4-1.7,18.4-4.9,26.9-9.2
		c17.4-8.7,23.7-24.6,26.1-42.3c3.4-24.9,5.8-49.9,9.3-74.8c3.5-24.5,9.8-48.2,18.5-71.4c7-18.9,13.6-37.9,20.5-56.8
		c8.8-23.9,18.7-47.4,33.9-68.2c11.5-15.7,27.2-25.9,45.2-32.5c23.6-8.7,48-11.9,73.1-11.6c17.2,0.2,34.3,0.3,51.5-0.2
		c12.4-0.4,25-0.2,36.7-5.7c13.3-6.2,23.2-15.9,30.7-28.4c10.1-16.9,14.1-35.8,18.3-54.7c3.7-16.8,10.7-32.1,20-46.5
		c3-4.6,5.4-9.5,8.1-14.3c0.9-1.6,1.7-3.4,3.9-3.4c2.5,0.1,3.2,2.2,3.9,4c3.1,8.4,5.9,17,6.8,26c0.2,1.6-0.2,3.7,1.8,4.2
		c1.8,0.5,2.3-1.5,3.4-2.5c9.2-8.4,17.8-17.6,28.8-23.9c1.5-0.9,3.1-2.8,4.9-1.4c1.8,1.4,1.1,3.7,0.5,5.6c-2.7,8.8-6.9,17-11.1,25.1
		c-4.2,8.3-8.1,16.8-13.2,24.6c-1.1,1.7-0.9,3.1,0.8,4.2c3.8,2.4,7.6,4.8,12.3,5.1c9.1,0.6,17,3.1,22.7,11.3
		c3.6,5.2,9.3,8.9,15.1,12c10.9,5.9,20,13.9,26.2,24.7c3.3,5.7,4.6,12.2,3.4,18.8c-0.8,4.2-3.3,7-7.6,8.5c-7,2.5-14.3,3.8-21.6,2.6
		c-16.6-2.7-33.2-1.4-49.8,0.1c-3,0.3-4.1,1.5-5,4.4c-3.4,11.5-5.5,23.3-9.2,34.8c-6.6,20.5-16.2,39.4-27.8,57.4
		C583,259,575,272,565.3,283.7c-2.2,2.6-2.2,5.3-0.9,8.4c4.8,11.1,9.6,22.3,14.3,33.5c7.3,17.6,10.5,35.9,8.2,54.7
		c-1,8.2-3.6,16.4-11,22.2c-9,7-17,4.1-20.3-6.8c-2.3-7.7-1-14,3.3-20.2c6.4-9.2,5.1-18.6-0.1-27.6c-6-10.2-13.3-19.5-20.7-28.8
		c-2.2-2.7-3.5-1.3-5.2,0.3c-8.6,8.1-17.1,16.3-25.8,24.3c-11.2,10.3-23.4,19.2-36,27.7c-8.9,6-15.9,13.7-20.1,23.6
		c-6.3,14.9-11.9,30-16.3,45.5c-1.9,6.8-2.2,13.9-2.3,20.8c-0.1,17,0.2,34,1.9,50.9c0.7,7.1,2.8,13.8,7.1,19.4
		c6,7.8,14.5,11.4,24.3,11.9c8,0.4,16,0.2,23.9-1.2c8.8-1.6,17.6-0.9,26.3,0.4c6,0.9,10.1,4.5,11.7,10.2c1.3,4.4,1.4,8.8-2.6,12.4
		c-2.2,2-4.7,2.3-7.4,2.3c-20.7,0-41.3,0-62,0C455.9,567.8,455.9,567.8,455.9,567.9z"/>
</g>
</svg>
